<svg xmlns="http://www.w3.org/2000/svg" xmlns:xlink="http://www.w3.org/1999/xlink" width="242" zoomAndPan="magnify" viewBox="0 0 181.5 51.749998" height="69" preserveAspectRatio="xMidYMid meet" version="1.0"><defs><clipPath id="6d25d6bc63"><path d="M 0.1875 0 L 180.816406 0 L 180.816406 51.5 L 0.1875 51.5 Z M 0.1875 0 " clip-rule="nonzero"/></clipPath><clipPath id="95e61f8ded"><path d="M 10.664062 0 L 170.835938 0 C 173.613281 0 176.277344 1.105469 178.242188 3.070312 C 180.207031 5.035156 181.3125 7.699219 181.3125 10.476562 L 181.3125 41.164062 C 181.3125 43.945312 180.207031 46.609375 178.242188 48.574219 C 176.277344 50.539062 173.613281 51.644531 170.835938 51.644531 L 10.664062 51.644531 C 7.886719 51.644531 5.222656 50.539062 3.257812 48.574219 C 1.292969 46.609375 0.1875 43.945312 0.1875 41.164062 L 0.1875 10.476562 C 0.1875 7.699219 1.292969 5.035156 3.257812 3.070312 C 5.222656 1.105469 7.886719 0 10.664062 0 " clip-rule="nonzero"/></clipPath></defs><g clip-path="url(#6d25d6bc63)"><g clip-path="url(#95e61f8ded)"><path fill="#ff6b00" d="M 0.1875 0 L 181.261719 0 L 181.261719 51.5625 L 0.1875 51.5625 Z M 0.1875 0 " fill-opacity="1" fill-rule="nonzero"/></g></g></svg>