<svg xmlns="http://www.w3.org/2000/svg" xmlns:xlink="http://www.w3.org/1999/xlink" width="500" zoomAndPan="magnify" viewBox="0 0 375 374.999991" height="500" preserveAspectRatio="xMidYMid meet" version="1.0"><defs><g/><clipPath id="acd2fc1e4d"><path d="M 42 80.65625 L 337.5 80.65625 L 337.5 189 L 42 189 Z M 42 80.65625 " clip-rule="nonzero"/></clipPath></defs><g clip-path="url(#acd2fc1e4d)"><path fill="#8bc349" d="M 276.558594 174.390625 C 277.210938 170.265625 279.296875 158.5 282.566406 153.710938 C 282.566406 153.710938 283.667969 158.246094 279.613281 174.984375 C 279.503906 175.433594 280.039062 175.753906 280.378906 175.445312 C 297.304688 160.007812 284.367188 142.699219 284.367188 142.699219 C 284.367188 142.699219 265.847656 153.789062 275.675781 174.519531 C 275.871094 174.933594 276.484375 174.847656 276.558594 174.390625 Z M 285.425781 180.851562 C 291.789062 177.28125 310.183594 167.425781 320.296875 166.757812 C 320.296875 166.757812 315.269531 173.191406 287.917969 185.710938 C 287.1875 186.046875 287.324219 187.132812 288.121094 187.265625 C 327.617188 193.914062 337.34375 157.324219 337.34375 157.324219 C 337.34375 157.324219 302.089844 143.765625 284.296875 179.769531 C 283.941406 180.492188 284.726562 181.242188 285.425781 180.851562 Z M 104.371094 112.488281 C 114.199219 91.753906 95.679688 80.664062 95.679688 80.664062 C 95.679688 80.664062 82.742188 97.972656 99.667969 113.410156 C 100.007812 113.71875 100.542969 113.402344 100.433594 112.953125 C 96.375 96.210938 97.480469 91.675781 97.480469 91.675781 C 100.753906 96.464844 102.839844 108.230469 103.492188 112.355469 C 103.5625 112.808594 104.175781 112.902344 104.371094 112.488281 Z M 94.621094 118.816406 C 88.257812 115.25 69.863281 105.390625 59.753906 104.726562 C 59.753906 104.726562 64.777344 111.15625 92.128906 123.675781 C 92.863281 124.011719 92.722656 125.097656 91.925781 125.230469 C 52.433594 131.882812 42.703125 95.289062 42.703125 95.289062 C 42.703125 95.289062 77.960938 81.734375 95.75 117.738281 C 96.105469 118.460938 95.320312 119.207031 94.621094 118.816406 " fill-opacity="1" fill-rule="nonzero"/></g><path fill="#006837" d="M 217.402344 176.207031 L 217.402344 169.484375 C 217.402344 168.800781 216.851562 168.253906 216.175781 168.253906 L 209.472656 168.253906 C 208.796875 168.253906 208.25 168.800781 208.25 169.484375 L 208.25 176.207031 C 208.25 176.886719 208.796875 177.4375 209.472656 177.4375 L 216.175781 177.4375 C 216.851562 177.4375 217.402344 176.886719 217.402344 176.207031 Z M 204.863281 176.207031 L 204.863281 169.484375 C 204.863281 168.800781 204.316406 168.253906 203.640625 168.253906 L 196.9375 168.253906 C 196.257812 168.253906 195.710938 168.800781 195.710938 169.484375 L 195.710938 176.207031 C 195.710938 176.886719 196.257812 177.4375 196.9375 177.4375 L 203.640625 177.4375 C 204.316406 177.4375 204.863281 176.886719 204.863281 176.207031 Z M 217.402344 164.15625 L 217.402344 157.429688 C 217.402344 156.75 216.851562 156.199219 216.175781 156.199219 L 209.472656 156.199219 C 208.796875 156.199219 208.25 156.75 208.25 157.429688 L 208.25 164.15625 C 208.25 164.835938 208.796875 165.386719 209.472656 165.386719 L 216.175781 165.386719 C 216.851562 165.386719 217.402344 164.835938 217.402344 164.15625 Z M 204.863281 164.15625 L 204.863281 157.429688 C 204.863281 156.75 204.316406 156.199219 203.640625 156.199219 L 196.9375 156.199219 C 196.257812 156.199219 195.710938 156.75 195.710938 157.429688 L 195.710938 164.15625 C 195.710938 164.835938 196.257812 165.386719 196.9375 165.386719 L 203.640625 165.386719 C 204.316406 165.386719 204.863281 164.835938 204.863281 164.15625 Z M 126.296875 176.207031 L 126.296875 169.484375 C 126.296875 168.800781 125.746094 168.253906 125.070312 168.253906 L 118.367188 168.253906 C 117.691406 168.253906 117.140625 168.800781 117.140625 169.484375 L 117.140625 176.207031 C 117.140625 176.886719 117.691406 177.4375 118.367188 177.4375 L 125.070312 177.4375 C 125.746094 177.4375 126.296875 176.886719 126.296875 176.207031 Z M 113.757812 176.207031 L 113.757812 169.484375 C 113.757812 168.800781 113.210938 168.253906 112.535156 168.253906 L 105.828125 168.253906 C 105.152344 168.253906 104.605469 168.800781 104.605469 169.484375 L 104.605469 176.207031 C 104.605469 176.886719 105.152344 177.4375 105.828125 177.4375 L 112.535156 177.4375 C 113.210938 177.4375 113.757812 176.886719 113.757812 176.207031 Z M 126.296875 164.15625 L 126.296875 157.429688 C 126.296875 156.75 125.746094 156.199219 125.070312 156.199219 L 118.367188 156.199219 C 117.691406 156.199219 117.140625 156.75 117.140625 157.429688 L 117.140625 164.15625 C 117.140625 164.835938 117.691406 165.386719 118.367188 165.386719 L 125.070312 165.386719 C 125.746094 165.386719 126.296875 164.835938 126.296875 164.15625 Z M 113.757812 164.15625 L 113.757812 157.429688 C 113.757812 156.75 113.210938 156.199219 112.535156 156.199219 L 105.828125 156.199219 C 105.152344 156.199219 104.605469 156.75 104.605469 157.429688 L 104.605469 164.15625 C 104.605469 164.835938 105.152344 165.386719 105.828125 165.386719 L 112.535156 165.386719 C 113.210938 165.386719 113.757812 164.835938 113.757812 164.15625 Z M 207.992188 114.628906 L 281.660156 186.632812 C 283.636719 188.566406 282.273438 191.929688 279.511719 191.929688 L 264.691406 191.929688 C 263.890625 191.929688 263.121094 191.613281 262.546875 191.050781 L 207.992188 137.730469 C 206.796875 136.566406 204.890625 136.566406 203.695312 137.730469 L 174.726562 166.046875 C 173.488281 167.257812 173.488281 169.257812 174.726562 170.46875 L 191.261719 186.632812 C 193.242188 188.566406 191.878906 191.929688 189.117188 191.929688 L 174.296875 191.929688 C 173.496094 191.929688 172.726562 191.613281 172.152344 191.050781 L 160.644531 179.808594 L 148.828125 168.257812 L 117.597656 137.730469 C 116.402344 136.566406 114.496094 136.566406 113.300781 137.730469 L 58.746094 191.050781 C 58.171875 191.613281 57.402344 191.929688 56.601562 191.929688 L 41.78125 191.929688 C 39.023438 191.929688 37.65625 188.566406 39.636719 186.632812 L 113.300781 114.628906 C 114.496094 113.457031 116.402344 113.457031 117.597656 114.628906 L 158.5 154.605469 C 159.695312 155.773438 161.597656 155.773438 162.792969 154.605469 L 203.695312 114.628906 C 204.890625 113.457031 206.796875 113.457031 207.992188 114.628906 " fill-opacity="1" fill-rule="nonzero"/><g fill="#006837" fill-opacity="1"><g transform="translate(37.500002, 237.825877)"><g><path d="M 1.421875 0 C 1.347656 0 1.300781 -0.0195312 1.28125 -0.0625 C 1.257812 -0.101562 1.25 -0.140625 1.25 -0.171875 L 1.25 -1.296875 C 1.25 -1.316406 1.257812 -1.347656 1.28125 -1.390625 C 1.300781 -1.429688 1.347656 -1.453125 1.421875 -1.453125 C 1.847656 -1.453125 2.28125 -1.484375 2.71875 -1.546875 C 3.15625 -1.609375 3.550781 -1.742188 3.90625 -1.953125 C 4.269531 -2.160156 4.566406 -2.457031 4.796875 -2.84375 C 5.023438 -3.238281 5.140625 -3.769531 5.140625 -4.4375 L 5.140625 -25.328125 C 5.140625 -25.796875 5.0625 -26.191406 4.90625 -26.515625 C 4.757812 -26.835938 4.546875 -27.097656 4.265625 -27.296875 C 3.992188 -27.492188 3.660156 -27.640625 3.265625 -27.734375 C 2.878906 -27.835938 2.453125 -27.90625 1.984375 -27.9375 C 1.867188 -27.9375 1.8125 -27.988281 1.8125 -28.09375 L 1.8125 -29.21875 C 1.8125 -29.332031 1.859375 -29.390625 1.953125 -29.390625 L 14.296875 -29.390625 C 14.367188 -29.390625 14.414062 -29.367188 14.4375 -29.328125 C 14.457031 -29.285156 14.46875 -29.25 14.46875 -29.21875 L 14.46875 -28.09375 C 14.46875 -28.007812 14.410156 -27.96875 14.296875 -27.96875 C 13.878906 -27.96875 13.472656 -27.929688 13.078125 -27.859375 C 12.691406 -27.785156 12.351562 -27.644531 12.0625 -27.4375 C 11.769531 -27.226562 11.535156 -26.929688 11.359375 -26.546875 C 11.179688 -26.160156 11.09375 -25.65625 11.09375 -25.03125 L 11.09375 -16.453125 C 11.09375 -16.304688 11.113281 -16.210938 11.15625 -16.171875 C 11.195312 -16.128906 11.285156 -16.109375 11.421875 -16.109375 L 25.96875 -16.109375 C 26.101562 -16.109375 26.191406 -16.128906 26.234375 -16.171875 C 26.273438 -16.210938 26.296875 -16.304688 26.296875 -16.453125 L 26.296875 -25.359375 C 26.296875 -25.847656 26.144531 -26.253906 25.84375 -26.578125 C 25.539062 -26.898438 25.15625 -27.15625 24.6875 -27.34375 C 24.21875 -27.53125 23.710938 -27.664062 23.171875 -27.75 C 22.628906 -27.84375 22.128906 -27.90625 21.671875 -27.9375 C 21.566406 -27.9375 21.515625 -27.988281 21.515625 -28.09375 L 21.515625 -29.21875 C 21.515625 -29.332031 21.5625 -29.390625 21.65625 -29.390625 L 35.5625 -29.390625 C 35.625 -29.390625 35.664062 -29.367188 35.6875 -29.328125 C 35.707031 -29.285156 35.71875 -29.25 35.71875 -29.21875 L 35.71875 -28.09375 C 35.71875 -28.007812 35.664062 -27.96875 35.5625 -27.96875 C 35.144531 -27.96875 34.738281 -27.929688 34.34375 -27.859375 C 33.945312 -27.785156 33.59375 -27.644531 33.28125 -27.4375 C 32.96875 -27.226562 32.71875 -26.929688 32.53125 -26.546875 C 32.34375 -26.160156 32.25 -25.65625 32.25 -25.03125 L 32.25 -4.390625 C 32.25 -4.035156 32.300781 -3.710938 32.40625 -3.421875 C 32.507812 -3.140625 32.671875 -2.859375 32.890625 -2.578125 C 33.109375 -2.273438 33.472656 -2.019531 33.984375 -1.8125 C 34.492188 -1.601562 35.210938 -1.484375 36.140625 -1.453125 C 36.253906 -1.453125 36.3125 -1.398438 36.3125 -1.296875 L 36.3125 -0.171875 C 36.3125 -0.0546875 36.253906 0 36.140625 0 L 21.015625 0 C 20.941406 0 20.894531 -0.0195312 20.875 -0.0625 C 20.851562 -0.101562 20.84375 -0.140625 20.84375 -0.171875 L 20.84375 -1.296875 C 20.84375 -1.316406 20.851562 -1.347656 20.875 -1.390625 C 20.894531 -1.429688 20.941406 -1.453125 21.015625 -1.453125 C 21.429688 -1.453125 21.9375 -1.476562 22.53125 -1.53125 C 23.125 -1.59375 23.703125 -1.71875 24.265625 -1.90625 C 24.828125 -2.09375 25.304688 -2.363281 25.703125 -2.71875 C 26.097656 -3.070312 26.296875 -3.554688 26.296875 -4.171875 L 26.296875 -13.171875 C 26.296875 -13.304688 26.273438 -13.394531 26.234375 -13.4375 C 26.191406 -13.476562 26.101562 -13.5 25.96875 -13.5 L 11.421875 -13.5 C 11.285156 -13.5 11.195312 -13.476562 11.15625 -13.4375 C 11.113281 -13.394531 11.09375 -13.304688 11.09375 -13.171875 L 11.09375 -3.953125 C 11.09375 -3.484375 11.195312 -3.085938 11.40625 -2.765625 C 11.613281 -2.453125 11.882812 -2.195312 12.21875 -2 C 12.5625 -1.800781 12.953125 -1.660156 13.390625 -1.578125 C 13.835938 -1.492188 14.300781 -1.453125 14.78125 -1.453125 C 14.863281 -1.453125 14.910156 -1.429688 14.921875 -1.390625 C 14.929688 -1.347656 14.9375 -1.316406 14.9375 -1.296875 L 14.9375 -0.171875 C 14.9375 -0.140625 14.929688 -0.101562 14.921875 -0.0625 C 14.910156 -0.0195312 14.867188 0 14.796875 0 Z M 1.421875 0 "/></g></g></g><g fill="#006837" fill-opacity="1"><g transform="translate(75.053123, 237.825877)"><g><path d="M 0.140625 -1.0625 C 0.140625 -1.070312 0.144531 -1.101562 0.15625 -1.15625 C 0.175781 -1.207031 0.226562 -1.234375 0.3125 -1.234375 L 0.765625 -1.234375 C 1.347656 -1.273438 1.945312 -1.296875 2.5625 -1.296875 C 3.175781 -1.304688 3.734375 -1.382812 4.234375 -1.53125 C 4.734375 -1.675781 5.140625 -1.929688 5.453125 -2.296875 C 5.773438 -2.671875 5.9375 -3.242188 5.9375 -4.015625 L 5.9375 -25.359375 C 5.9375 -25.898438 5.820312 -26.34375 5.59375 -26.6875 C 5.375 -27.03125 5.082031 -27.304688 4.71875 -27.515625 C 4.363281 -27.722656 3.957031 -27.878906 3.5 -27.984375 C 3.039062 -28.085938 2.578125 -28.175781 2.109375 -28.25 L 1.671875 -28.25 C 1.597656 -28.25 1.550781 -28.269531 1.53125 -28.3125 C 1.507812 -28.351562 1.5 -28.382812 1.5 -28.40625 L 1.5 -29.21875 C 1.5 -29.25 1.507812 -29.285156 1.53125 -29.328125 C 1.550781 -29.367188 1.597656 -29.390625 1.671875 -29.390625 L 22.421875 -29.390625 C 22.671875 -29.390625 22.851562 -29.34375 22.96875 -29.25 C 23.082031 -29.164062 23.148438 -28.96875 23.171875 -28.65625 L 23.546875 -21.984375 C 23.546875 -21.921875 23.488281 -21.867188 23.375 -21.828125 C 23.257812 -21.796875 23.148438 -21.78125 23.046875 -21.78125 C 22.941406 -21.78125 22.832031 -21.789062 22.71875 -21.8125 C 22.601562 -21.84375 22.523438 -21.890625 22.484375 -21.953125 C 22.390625 -22.085938 22.320312 -22.289062 22.28125 -22.5625 C 22.238281 -22.832031 22.191406 -23.132812 22.140625 -23.46875 C 22.097656 -23.800781 22.03125 -24.144531 21.9375 -24.5 C 21.84375 -24.863281 21.707031 -25.195312 21.53125 -25.5 C 21.351562 -25.8125 21.109375 -26.082031 20.796875 -26.3125 C 20.484375 -26.539062 20.082031 -26.695312 19.59375 -26.78125 L 12.15625 -26.78125 C 11.96875 -26.78125 11.875 -26.691406 11.875 -26.515625 L 11.875 -16.578125 C 11.875 -16.429688 11.945312 -16.359375 12.09375 -16.359375 L 18.046875 -16.359375 C 18.398438 -16.359375 18.742188 -16.40625 19.078125 -16.5 C 19.421875 -16.59375 19.71875 -16.753906 19.96875 -16.984375 C 20.226562 -17.222656 20.4375 -17.550781 20.59375 -17.96875 C 20.757812 -18.394531 20.84375 -18.941406 20.84375 -19.609375 C 20.84375 -19.722656 20.898438 -19.78125 21.015625 -19.78125 L 21.828125 -19.78125 C 21.929688 -19.78125 21.984375 -19.722656 21.984375 -19.609375 L 21.984375 -10.0625 C 21.984375 -10 21.960938 -9.957031 21.921875 -9.9375 C 21.878906 -9.914062 21.847656 -9.90625 21.828125 -9.90625 L 21.015625 -9.90625 C 20.941406 -9.90625 20.894531 -9.925781 20.875 -9.96875 C 20.851562 -10.007812 20.84375 -10.039062 20.84375 -10.0625 C 20.84375 -10.84375 20.757812 -11.472656 20.59375 -11.953125 C 20.4375 -12.429688 20.226562 -12.804688 19.96875 -13.078125 C 19.707031 -13.347656 19.40625 -13.523438 19.0625 -13.609375 C 18.71875 -13.703125 18.359375 -13.75 17.984375 -13.75 L 12.09375 -13.75 C 11.945312 -13.75 11.875 -13.679688 11.875 -13.546875 L 11.875 -4.4375 C 11.875 -4.03125 11.9375 -3.707031 12.0625 -3.46875 C 12.1875 -3.226562 12.359375 -3.046875 12.578125 -2.921875 C 12.796875 -2.796875 13.039062 -2.710938 13.3125 -2.671875 C 13.59375 -2.628906 13.882812 -2.609375 14.1875 -2.609375 L 19.890625 -2.609375 C 20.691406 -2.609375 21.363281 -2.789062 21.90625 -3.15625 C 22.445312 -3.519531 22.882812 -3.96875 23.21875 -4.5 C 23.550781 -5.03125 23.796875 -5.578125 23.953125 -6.140625 C 24.117188 -6.710938 24.222656 -7.203125 24.265625 -7.609375 C 24.285156 -7.785156 24.375 -7.925781 24.53125 -8.03125 C 24.6875 -8.132812 24.859375 -8.1875 25.046875 -8.1875 C 25.117188 -8.1875 25.203125 -8.160156 25.296875 -8.109375 C 25.398438 -8.054688 25.453125 -7.992188 25.453125 -7.921875 L 24.765625 -0.296875 C 24.734375 -0.222656 24.691406 -0.15625 24.640625 -0.09375 C 24.597656 -0.03125 24.539062 0 24.46875 0 L 0.3125 0 C 0.226562 0 0.175781 -0.0195312 0.15625 -0.0625 C 0.144531 -0.113281 0.140625 -0.148438 0.140625 -0.171875 Z M 0.140625 -1.0625 "/></g></g></g><g fill="#006837" fill-opacity="1"><g transform="translate(102.332277, 237.825877)"><g><path d="M 0.109375 -0.984375 C 0.109375 -1.085938 0.160156 -1.140625 0.265625 -1.140625 C 0.535156 -1.160156 0.847656 -1.203125 1.203125 -1.265625 C 1.554688 -1.328125 1.914062 -1.457031 2.28125 -1.65625 C 2.644531 -1.851562 3 -2.148438 3.34375 -2.546875 C 3.695312 -2.941406 3.992188 -3.488281 4.234375 -4.1875 L 12.609375 -28.5 C 12.609375 -28.476562 12.609375 -28.484375 12.609375 -28.515625 C 12.617188 -28.546875 12.625 -28.570312 12.625 -28.59375 C 12.625 -28.695312 12.585938 -28.820312 12.515625 -28.96875 C 12.441406 -29.113281 12.40625 -29.21875 12.40625 -29.28125 C 12.40625 -29.351562 12.429688 -29.390625 12.484375 -29.390625 L 18.53125 -29.390625 C 18.5625 -29.378906 18.597656 -29.363281 18.640625 -29.34375 C 18.691406 -29.332031 18.734375 -29.289062 18.765625 -29.21875 L 27.578125 -4.484375 C 27.710938 -4.085938 27.84375 -3.75 27.96875 -3.46875 C 28.09375 -3.195312 28.242188 -2.953125 28.421875 -2.734375 C 28.597656 -2.523438 28.816406 -2.332031 29.078125 -2.15625 C 29.335938 -1.976562 29.675781 -1.800781 30.09375 -1.625 C 30.289062 -1.53125 30.554688 -1.425781 30.890625 -1.3125 C 31.222656 -1.195312 31.539062 -1.140625 31.84375 -1.140625 C 31.914062 -1.140625 31.960938 -1.117188 31.984375 -1.078125 C 32.003906 -1.035156 32.015625 -0.992188 32.015625 -0.953125 L 32.015625 -0.171875 C 32.015625 -0.140625 32.003906 -0.101562 31.984375 -0.0625 C 31.960938 -0.0195312 31.914062 0 31.84375 0 L 17.21875 0 C 17.144531 0 17.097656 -0.0195312 17.078125 -0.0625 C 17.054688 -0.101562 17.046875 -0.140625 17.046875 -0.171875 L 17.046875 -0.984375 C 17.046875 -1.003906 17.054688 -1.035156 17.078125 -1.078125 C 17.097656 -1.117188 17.144531 -1.140625 17.21875 -1.140625 C 17.269531 -1.140625 17.320312 -1.144531 17.375 -1.15625 C 17.4375 -1.164062 17.484375 -1.171875 17.515625 -1.171875 C 17.660156 -1.179688 17.875 -1.191406 18.15625 -1.203125 C 18.445312 -1.222656 18.757812 -1.25 19.09375 -1.28125 C 19.425781 -1.3125 19.757812 -1.363281 20.09375 -1.4375 C 20.4375 -1.519531 20.75 -1.632812 21.03125 -1.78125 C 21.3125 -1.925781 21.539062 -2.113281 21.71875 -2.34375 C 21.894531 -2.582031 21.984375 -2.878906 21.984375 -3.234375 C 21.984375 -3.316406 21.972656 -3.410156 21.953125 -3.515625 L 19.21875 -11.046875 C 19.207031 -11.078125 19.179688 -11.140625 19.140625 -11.234375 C 19.109375 -11.328125 19.050781 -11.425781 18.96875 -11.53125 C 18.894531 -11.632812 18.800781 -11.726562 18.6875 -11.8125 C 18.570312 -11.894531 18.429688 -11.9375 18.265625 -11.9375 L 10.734375 -11.9375 C 10.554688 -11.9375 10.40625 -11.894531 10.28125 -11.8125 C 10.15625 -11.726562 10.050781 -11.640625 9.96875 -11.546875 C 9.882812 -11.453125 9.816406 -11.351562 9.765625 -11.25 C 9.710938 -11.15625 9.6875 -11.101562 9.6875 -11.09375 C 9.25 -9.78125 8.875 -8.675781 8.5625 -7.78125 C 8.257812 -6.882812 8.003906 -6.144531 7.796875 -5.5625 C 7.597656 -4.976562 7.441406 -4.523438 7.328125 -4.203125 C 7.222656 -3.890625 7.144531 -3.660156 7.09375 -3.515625 C 7.050781 -3.367188 7.023438 -3.273438 7.015625 -3.234375 C 7.003906 -3.203125 7 -3.1875 7 -3.1875 C 7 -3.144531 7.003906 -3.097656 7.015625 -3.046875 C 7.035156 -3.003906 7.050781 -2.960938 7.0625 -2.921875 C 7.175781 -2.566406 7.378906 -2.273438 7.671875 -2.046875 C 7.972656 -1.816406 8.316406 -1.632812 8.703125 -1.5 C 9.097656 -1.375 9.5 -1.28125 9.90625 -1.21875 C 10.320312 -1.164062 10.6875 -1.140625 11 -1.140625 L 11.546875 -1.140625 C 11.617188 -1.140625 11.664062 -1.117188 11.6875 -1.078125 C 11.707031 -1.035156 11.71875 -1.003906 11.71875 -0.984375 L 11.71875 -0.171875 C 11.71875 -0.140625 11.707031 -0.101562 11.6875 -0.0625 C 11.664062 -0.0195312 11.617188 0 11.546875 0 L 0.265625 0 C 0.160156 0 0.109375 -0.0546875 0.109375 -0.171875 Z M 11.03125 -14.9375 C 11 -14.875 10.972656 -14.804688 10.953125 -14.734375 C 10.941406 -14.660156 10.9375 -14.59375 10.9375 -14.53125 C 10.9375 -14.445312 10.957031 -14.378906 11 -14.328125 C 11.039062 -14.273438 11.125 -14.25 11.25 -14.25 L 17.515625 -14.25 C 17.660156 -14.25 17.757812 -14.28125 17.8125 -14.34375 C 17.863281 -14.40625 17.890625 -14.476562 17.890625 -14.5625 C 17.890625 -14.632812 17.878906 -14.695312 17.859375 -14.75 C 17.847656 -14.8125 17.828125 -14.875 17.796875 -14.9375 L 15.03125 -22.546875 C 14.957031 -22.742188 14.847656 -22.882812 14.703125 -22.96875 C 14.566406 -23.0625 14.445312 -23.109375 14.34375 -23.109375 C 14.226562 -23.109375 14.097656 -23.054688 13.953125 -22.953125 C 13.816406 -22.847656 13.71875 -22.707031 13.65625 -22.53125 Z M 11.03125 -14.9375 "/></g></g></g><g fill="#006837" fill-opacity="1"><g transform="translate(134.446239, 237.825877)"><g><path d="M 1 0 C 0.925781 0 0.878906 -0.0195312 0.859375 -0.0625 C 0.835938 -0.101562 0.828125 -0.140625 0.828125 -0.171875 L 0.828125 -1.296875 C 0.828125 -1.316406 0.832031 -1.347656 0.84375 -1.390625 C 0.863281 -1.429688 0.914062 -1.453125 1 -1.453125 L 1.5 -1.453125 C 1.539062 -1.453125 1.675781 -1.460938 1.90625 -1.484375 C 2.132812 -1.503906 2.394531 -1.539062 2.6875 -1.59375 C 2.988281 -1.644531 3.300781 -1.710938 3.625 -1.796875 C 3.945312 -1.878906 4.21875 -1.984375 4.4375 -2.109375 C 4.925781 -2.378906 5.285156 -2.734375 5.515625 -3.171875 C 5.753906 -3.609375 5.875 -4.097656 5.875 -4.640625 L 5.875 -25.453125 C 5.875 -25.953125 5.707031 -26.359375 5.375 -26.671875 C 5.050781 -26.992188 4.664062 -27.25 4.21875 -27.4375 C 3.769531 -27.625 3.3125 -27.753906 2.84375 -27.828125 C 2.375 -27.898438 2.003906 -27.9375 1.734375 -27.9375 L 1.265625 -27.9375 C 1.203125 -27.9375 1.160156 -27.957031 1.140625 -28 C 1.117188 -28.050781 1.109375 -28.082031 1.109375 -28.09375 L 1.109375 -29.21875 C 1.109375 -29.25 1.117188 -29.285156 1.140625 -29.328125 C 1.160156 -29.367188 1.203125 -29.390625 1.265625 -29.390625 L 17.265625 -29.390625 C 17.328125 -29.390625 17.367188 -29.367188 17.390625 -29.328125 C 17.410156 -29.285156 17.421875 -29.25 17.421875 -29.21875 L 17.421875 -28.09375 C 17.421875 -28.070312 17.410156 -28.039062 17.390625 -28 C 17.367188 -27.957031 17.328125 -27.9375 17.265625 -27.9375 L 16.359375 -27.9375 C 15.578125 -27.9375 14.851562 -27.875 14.1875 -27.75 C 13.519531 -27.625 12.976562 -27.484375 12.5625 -27.328125 C 12.25 -27.210938 12.046875 -27.023438 11.953125 -26.765625 C 11.859375 -26.515625 11.8125 -26.078125 11.8125 -25.453125 L 11.8125 -3.578125 C 11.84375 -3.347656 11.96875 -3.128906 12.1875 -2.921875 C 12.414062 -2.710938 12.664062 -2.609375 12.9375 -2.609375 L 20.234375 -2.609375 C 20.722656 -2.609375 21.1875 -2.710938 21.625 -2.921875 C 22.0625 -3.128906 22.46875 -3.394531 22.84375 -3.71875 C 23.21875 -4.039062 23.5625 -4.394531 23.875 -4.78125 C 24.195312 -5.175781 24.488281 -5.554688 24.75 -5.921875 C 25.019531 -6.285156 25.257812 -6.609375 25.46875 -6.890625 C 25.675781 -7.171875 25.859375 -7.375 26.015625 -7.5 C 26.078125 -7.539062 26.15625 -7.582031 26.25 -7.625 C 26.34375 -7.664062 26.453125 -7.6875 26.578125 -7.6875 C 26.816406 -7.6875 26.9375 -7.597656 26.9375 -7.421875 C 26.9375 -7.335938 26.914062 -7.253906 26.875 -7.171875 L 23.40625 -0.375 C 23.351562 -0.257812 23.289062 -0.164062 23.21875 -0.09375 C 23.144531 -0.03125 23.0625 0 22.96875 0 Z M 1 0 "/></g></g></g><g fill="#006837" fill-opacity="1"><g transform="translate(161.516996, 237.825877)"><g><path d="M 12.671875 -26.203125 C 12.671875 -26.492188 12.609375 -26.65625 12.484375 -26.6875 C 12.367188 -26.726562 12.226562 -26.757812 12.0625 -26.78125 L 5 -26.78125 C 4.488281 -26.664062 4.085938 -26.457031 3.796875 -26.15625 C 3.503906 -25.863281 3.273438 -25.515625 3.109375 -25.109375 C 2.941406 -24.710938 2.816406 -24.28125 2.734375 -23.8125 C 2.648438 -23.34375 2.554688 -22.894531 2.453125 -22.46875 C 2.429688 -22.34375 2.40625 -22.191406 2.375 -22.015625 C 2.34375 -21.847656 2.316406 -21.75 2.296875 -21.71875 C 2.265625 -21.675781 2.210938 -21.65625 2.140625 -21.65625 L 1.453125 -21.65625 C 1.367188 -21.65625 1.328125 -21.679688 1.328125 -21.734375 L 1.328125 -22.421875 L 2.109375 -29.5625 C 2.128906 -29.707031 2.1875 -29.847656 2.28125 -29.984375 C 2.382812 -30.128906 2.539062 -30.203125 2.75 -30.203125 C 2.84375 -30.203125 2.9375 -30.171875 3.03125 -30.109375 C 3.125 -30.054688 3.210938 -29.992188 3.296875 -29.921875 C 3.378906 -29.847656 3.457031 -29.773438 3.53125 -29.703125 C 3.601562 -29.628906 3.679688 -29.582031 3.765625 -29.5625 C 3.929688 -29.488281 4.085938 -29.441406 4.234375 -29.421875 C 4.378906 -29.398438 4.546875 -29.390625 4.734375 -29.390625 L 26.578125 -29.390625 C 26.753906 -29.390625 26.914062 -29.398438 27.0625 -29.421875 C 27.207031 -29.441406 27.363281 -29.488281 27.53125 -29.5625 C 27.613281 -29.582031 27.691406 -29.628906 27.765625 -29.703125 C 27.847656 -29.773438 27.929688 -29.847656 28.015625 -29.921875 C 28.097656 -29.992188 28.179688 -30.054688 28.265625 -30.109375 C 28.359375 -30.171875 28.457031 -30.203125 28.5625 -30.203125 C 28.769531 -30.203125 28.921875 -30.128906 29.015625 -29.984375 C 29.109375 -29.847656 29.171875 -29.707031 29.203125 -29.5625 L 29.96875 -22.421875 L 29.96875 -21.734375 C 29.96875 -21.679688 29.925781 -21.65625 29.84375 -21.65625 L 29.15625 -21.65625 C 29.09375 -21.65625 29.046875 -21.675781 29.015625 -21.71875 C 28.984375 -21.75 28.953125 -21.847656 28.921875 -22.015625 C 28.898438 -22.191406 28.875 -22.34375 28.84375 -22.46875 C 28.75 -22.894531 28.660156 -23.34375 28.578125 -23.8125 C 28.492188 -24.28125 28.367188 -24.710938 28.203125 -25.109375 C 28.035156 -25.515625 27.804688 -25.863281 27.515625 -26.15625 C 27.222656 -26.457031 26.816406 -26.664062 26.296875 -26.78125 L 19.21875 -26.78125 C 19.050781 -26.757812 18.90625 -26.726562 18.78125 -26.6875 C 18.664062 -26.65625 18.609375 -26.492188 18.609375 -26.203125 L 18.609375 -4.0625 C 18.609375 -3.644531 18.710938 -3.269531 18.921875 -2.9375 C 19.128906 -2.613281 19.410156 -2.328125 19.765625 -2.078125 C 20.117188 -1.828125 20.535156 -1.625 21.015625 -1.46875 C 21.492188 -1.320312 22.003906 -1.222656 22.546875 -1.171875 C 22.703125 -1.148438 22.894531 -1.140625 23.125 -1.140625 C 23.363281 -1.140625 23.566406 -1.140625 23.734375 -1.140625 C 23.804688 -1.140625 23.851562 -1.117188 23.875 -1.078125 C 23.894531 -1.035156 23.90625 -1.003906 23.90625 -0.984375 L 23.90625 -0.171875 C 23.90625 -0.140625 23.894531 -0.101562 23.875 -0.0625 C 23.851562 -0.0195312 23.804688 0 23.734375 0 L 7.546875 0 C 7.472656 0 7.425781 -0.0195312 7.40625 -0.0625 C 7.382812 -0.101562 7.375 -0.140625 7.375 -0.171875 L 7.375 -0.984375 C 7.375 -1.003906 7.382812 -1.035156 7.40625 -1.078125 C 7.425781 -1.117188 7.472656 -1.140625 7.546875 -1.140625 C 7.703125 -1.140625 7.898438 -1.140625 8.140625 -1.140625 C 8.378906 -1.140625 8.578125 -1.148438 8.734375 -1.171875 C 9.273438 -1.222656 9.785156 -1.320312 10.265625 -1.46875 C 10.742188 -1.625 11.160156 -1.828125 11.515625 -2.078125 C 11.867188 -2.328125 12.148438 -2.613281 12.359375 -2.9375 C 12.566406 -3.269531 12.671875 -3.644531 12.671875 -4.0625 Z M 12.671875 -26.203125 "/></g></g></g><g fill="#006837" fill-opacity="1"><g transform="translate(192.81821, 237.825877)"><g><path d="M 1.421875 0 C 1.347656 0 1.300781 -0.0195312 1.28125 -0.0625 C 1.257812 -0.101562 1.25 -0.140625 1.25 -0.171875 L 1.25 -1.296875 C 1.25 -1.316406 1.257812 -1.347656 1.28125 -1.390625 C 1.300781 -1.429688 1.347656 -1.453125 1.421875 -1.453125 C 1.847656 -1.453125 2.28125 -1.484375 2.71875 -1.546875 C 3.15625 -1.609375 3.550781 -1.742188 3.90625 -1.953125 C 4.269531 -2.160156 4.566406 -2.457031 4.796875 -2.84375 C 5.023438 -3.238281 5.140625 -3.769531 5.140625 -4.4375 L 5.140625 -25.328125 C 5.140625 -25.796875 5.0625 -26.191406 4.90625 -26.515625 C 4.757812 -26.835938 4.546875 -27.097656 4.265625 -27.296875 C 3.992188 -27.492188 3.660156 -27.640625 3.265625 -27.734375 C 2.878906 -27.835938 2.453125 -27.90625 1.984375 -27.9375 C 1.867188 -27.9375 1.8125 -27.988281 1.8125 -28.09375 L 1.8125 -29.21875 C 1.8125 -29.332031 1.859375 -29.390625 1.953125 -29.390625 L 14.296875 -29.390625 C 14.367188 -29.390625 14.414062 -29.367188 14.4375 -29.328125 C 14.457031 -29.285156 14.46875 -29.25 14.46875 -29.21875 L 14.46875 -28.09375 C 14.46875 -28.007812 14.410156 -27.96875 14.296875 -27.96875 C 13.878906 -27.96875 13.472656 -27.929688 13.078125 -27.859375 C 12.691406 -27.785156 12.351562 -27.644531 12.0625 -27.4375 C 11.769531 -27.226562 11.535156 -26.929688 11.359375 -26.546875 C 11.179688 -26.160156 11.09375 -25.65625 11.09375 -25.03125 L 11.09375 -16.453125 C 11.09375 -16.304688 11.113281 -16.210938 11.15625 -16.171875 C 11.195312 -16.128906 11.285156 -16.109375 11.421875 -16.109375 L 25.96875 -16.109375 C 26.101562 -16.109375 26.191406 -16.128906 26.234375 -16.171875 C 26.273438 -16.210938 26.296875 -16.304688 26.296875 -16.453125 L 26.296875 -25.359375 C 26.296875 -25.847656 26.144531 -26.253906 25.84375 -26.578125 C 25.539062 -26.898438 25.15625 -27.15625 24.6875 -27.34375 C 24.21875 -27.53125 23.710938 -27.664062 23.171875 -27.75 C 22.628906 -27.84375 22.128906 -27.90625 21.671875 -27.9375 C 21.566406 -27.9375 21.515625 -27.988281 21.515625 -28.09375 L 21.515625 -29.21875 C 21.515625 -29.332031 21.5625 -29.390625 21.65625 -29.390625 L 35.5625 -29.390625 C 35.625 -29.390625 35.664062 -29.367188 35.6875 -29.328125 C 35.707031 -29.285156 35.71875 -29.25 35.71875 -29.21875 L 35.71875 -28.09375 C 35.71875 -28.007812 35.664062 -27.96875 35.5625 -27.96875 C 35.144531 -27.96875 34.738281 -27.929688 34.34375 -27.859375 C 33.945312 -27.785156 33.59375 -27.644531 33.28125 -27.4375 C 32.96875 -27.226562 32.71875 -26.929688 32.53125 -26.546875 C 32.34375 -26.160156 32.25 -25.65625 32.25 -25.03125 L 32.25 -4.390625 C 32.25 -4.035156 32.300781 -3.710938 32.40625 -3.421875 C 32.507812 -3.140625 32.671875 -2.859375 32.890625 -2.578125 C 33.109375 -2.273438 33.472656 -2.019531 33.984375 -1.8125 C 34.492188 -1.601562 35.210938 -1.484375 36.140625 -1.453125 C 36.253906 -1.453125 36.3125 -1.398438 36.3125 -1.296875 L 36.3125 -0.171875 C 36.3125 -0.0546875 36.253906 0 36.140625 0 L 21.015625 0 C 20.941406 0 20.894531 -0.0195312 20.875 -0.0625 C 20.851562 -0.101562 20.84375 -0.140625 20.84375 -0.171875 L 20.84375 -1.296875 C 20.84375 -1.316406 20.851562 -1.347656 20.875 -1.390625 C 20.894531 -1.429688 20.941406 -1.453125 21.015625 -1.453125 C 21.429688 -1.453125 21.9375 -1.476562 22.53125 -1.53125 C 23.125 -1.59375 23.703125 -1.71875 24.265625 -1.90625 C 24.828125 -2.09375 25.304688 -2.363281 25.703125 -2.71875 C 26.097656 -3.070312 26.296875 -3.554688 26.296875 -4.171875 L 26.296875 -13.171875 C 26.296875 -13.304688 26.273438 -13.394531 26.234375 -13.4375 C 26.191406 -13.476562 26.101562 -13.5 25.96875 -13.5 L 11.421875 -13.5 C 11.285156 -13.5 11.195312 -13.476562 11.15625 -13.4375 C 11.113281 -13.394531 11.09375 -13.304688 11.09375 -13.171875 L 11.09375 -3.953125 C 11.09375 -3.484375 11.195312 -3.085938 11.40625 -2.765625 C 11.613281 -2.453125 11.882812 -2.195312 12.21875 -2 C 12.5625 -1.800781 12.953125 -1.660156 13.390625 -1.578125 C 13.835938 -1.492188 14.300781 -1.453125 14.78125 -1.453125 C 14.863281 -1.453125 14.910156 -1.429688 14.921875 -1.390625 C 14.929688 -1.347656 14.9375 -1.316406 14.9375 -1.296875 L 14.9375 -0.171875 C 14.9375 -0.140625 14.929688 -0.101562 14.921875 -0.0625 C 14.910156 -0.0195312 14.867188 0 14.796875 0 Z M 1.421875 0 "/></g></g></g><g fill="#006837" fill-opacity="1"><g transform="translate(230.371343, 237.825877)"><g><path d="M 14.84375 -10.296875 C 14.84375 -10.378906 14.820312 -10.445312 14.78125 -10.5 L 6.25 -24.140625 C 6.019531 -24.515625 5.765625 -24.890625 5.484375 -25.265625 C 5.210938 -25.648438 4.914062 -26.015625 4.59375 -26.359375 C 4.269531 -26.703125 3.914062 -27 3.53125 -27.25 C 3.144531 -27.507812 2.734375 -27.695312 2.296875 -27.8125 C 2.222656 -27.820312 2.109375 -27.84375 1.953125 -27.875 C 1.804688 -27.914062 1.648438 -27.945312 1.484375 -27.96875 C 1.316406 -28 1.15625 -28.023438 1 -28.046875 C 0.84375 -28.078125 0.734375 -28.101562 0.671875 -28.125 C 0.523438 -28.132812 0.390625 -28.21875 0.265625 -28.375 C 0.140625 -28.539062 0.078125 -28.6875 0.078125 -28.8125 C 0.078125 -28.832031 0.0820312 -28.878906 0.09375 -28.953125 C 0.101562 -29.023438 0.117188 -29.09375 0.140625 -29.15625 C 0.160156 -29.21875 0.191406 -29.269531 0.234375 -29.3125 C 0.273438 -29.363281 0.328125 -29.390625 0.390625 -29.390625 L 14.546875 -29.390625 C 14.703125 -29.390625 14.800781 -29.316406 14.84375 -29.171875 C 14.882812 -29.035156 14.90625 -28.914062 14.90625 -28.8125 C 14.90625 -28.664062 14.894531 -28.515625 14.875 -28.359375 C 14.851562 -28.210938 14.769531 -28.140625 14.625 -28.140625 C 14.25 -28.109375 13.894531 -28.078125 13.5625 -28.046875 C 13.226562 -28.023438 12.941406 -27.960938 12.703125 -27.859375 C 12.472656 -27.753906 12.285156 -27.597656 12.140625 -27.390625 C 12.003906 -27.179688 11.9375 -26.890625 11.9375 -26.515625 C 11.9375 -26.179688 12.019531 -25.878906 12.1875 -25.609375 L 18.546875 -15.40625 C 18.703125 -15.164062 18.800781 -15.015625 18.84375 -14.953125 C 18.894531 -14.898438 18.976562 -14.875 19.09375 -14.875 C 19.1875 -14.875 19.269531 -14.929688 19.34375 -15.046875 C 19.425781 -15.160156 19.523438 -15.304688 19.640625 -15.484375 L 24.65625 -24.015625 C 24.851562 -24.328125 25.050781 -24.675781 25.25 -25.0625 C 25.445312 -25.457031 25.546875 -25.859375 25.546875 -26.265625 C 25.546875 -26.648438 25.492188 -26.957031 25.390625 -27.1875 C 25.285156 -27.414062 25.128906 -27.59375 24.921875 -27.71875 C 24.710938 -27.84375 24.457031 -27.929688 24.15625 -27.984375 C 23.863281 -28.046875 23.523438 -28.097656 23.140625 -28.140625 C 22.984375 -28.148438 22.890625 -28.234375 22.859375 -28.390625 C 22.835938 -28.546875 22.828125 -28.6875 22.828125 -28.8125 C 22.828125 -28.90625 22.84375 -29.023438 22.875 -29.171875 C 22.90625 -29.316406 23.003906 -29.390625 23.171875 -29.390625 L 33.65625 -29.390625 C 33.769531 -29.390625 33.847656 -29.304688 33.890625 -29.140625 C 33.929688 -28.984375 33.953125 -28.875 33.953125 -28.8125 C 33.953125 -28.664062 33.90625 -28.546875 33.8125 -28.453125 C 33.726562 -28.359375 33.617188 -28.28125 33.484375 -28.21875 C 33.347656 -28.15625 33.207031 -28.101562 33.0625 -28.0625 C 32.914062 -28.03125 32.78125 -28 32.65625 -27.96875 C 31.96875 -27.820312 31.367188 -27.570312 30.859375 -27.21875 C 30.347656 -26.863281 29.851562 -26.421875 29.375 -25.890625 C 29.300781 -25.816406 29.195312 -25.703125 29.0625 -25.546875 C 28.9375 -25.398438 28.863281 -25.3125 28.84375 -25.28125 L 20.78125 -11.421875 L 20.78125 -4.0625 C 20.78125 -3.226562 20.992188 -2.582031 21.421875 -2.125 C 21.859375 -1.664062 22.625 -1.378906 23.71875 -1.265625 C 23.875 -1.253906 24.066406 -1.25 24.296875 -1.25 C 24.535156 -1.25 24.738281 -1.25 24.90625 -1.25 C 24.976562 -1.25 25.023438 -1.226562 25.046875 -1.1875 C 25.066406 -1.144531 25.078125 -1.109375 25.078125 -1.078125 L 25.078125 -0.171875 C 25.078125 -0.140625 25.066406 -0.101562 25.046875 -0.0625 C 25.023438 -0.0195312 24.976562 0 24.90625 0 L 10.71875 0 C 10.644531 0 10.597656 -0.0195312 10.578125 -0.0625 C 10.554688 -0.101562 10.546875 -0.140625 10.546875 -0.171875 L 10.546875 -1.078125 C 10.546875 -1.109375 10.554688 -1.144531 10.578125 -1.1875 C 10.597656 -1.226562 10.644531 -1.25 10.71875 -1.25 C 10.863281 -1.25 11.054688 -1.25 11.296875 -1.25 C 11.546875 -1.25 11.75 -1.253906 11.90625 -1.265625 C 13 -1.378906 13.757812 -1.664062 14.1875 -2.125 C 14.625 -2.582031 14.84375 -3.226562 14.84375 -4.0625 Z M 14.84375 -10.296875 "/></g></g></g><g fill="#006837" fill-opacity="1"><g transform="translate(76.063828, 256.138444)"><g><path d="M 6.179688 -12.195312 C 5.671875 -12.359375 5.113281 -12.441406 4.542969 -12.441406 C 2.703125 -12.441406 1.851562 -11.230469 1.851562 -9.277344 L 1.851562 -8.867188 L 0.359375 -8.867188 L 0.359375 -7.738281 L 1.851562 -7.738281 L 1.851562 -0.164062 C 1.851562 1.359375 1.261719 1.902344 0.132812 1.902344 C -0.0507812 1.902344 -0.214844 1.886719 -0.34375 1.886719 L -0.34375 2.984375 C -0.0976562 3.015625 0.164062 3.050781 0.605469 3.050781 C 2.082031 3.050781 3.214844 1.984375 3.214844 0.394531 L 3.214844 -7.738281 L 6.050781 -7.738281 L 6.050781 -8.867188 L 3.214844 -8.867188 L 3.214844 -9.214844 C 3.214844 -10.589844 3.507812 -11.277344 4.96875 -11.277344 C 5.542969 -11.277344 5.917969 -11.214844 6.179688 -11.164062 Z M 6.179688 -12.195312 "/></g></g></g><g fill="#006837" fill-opacity="1"><g transform="translate(82.765661, 256.138444)"><g><path d="M 5.542969 -9.03125 C 2.867188 -9.03125 0.703125 -6.984375 0.703125 -4.460938 C 0.703125 -1.949219 2.867188 0.0976562 5.542969 0.0976562 C 8.195312 0.0976562 10.359375 -1.949219 10.359375 -4.460938 C 10.359375 -6.984375 8.195312 -9.03125 5.542969 -9.03125 Z M 5.542969 -1.113281 C 3.605469 -1.113281 2.050781 -2.621094 2.050781 -4.460938 C 2.050781 -6.3125 3.605469 -7.820312 5.542969 -7.820312 C 7.460938 -7.820312 9.015625 -6.3125 9.015625 -4.460938 C 9.015625 -2.621094 7.460938 -1.113281 5.542969 -1.113281 Z M 5.542969 -1.113281 "/></g></g></g><g fill="#006837" fill-opacity="1"><g transform="translate(94.317377, 256.138444)"><g><path d="M 5.542969 -9.03125 C 2.867188 -9.03125 0.703125 -6.984375 0.703125 -4.460938 C 0.703125 -1.949219 2.867188 0.0976562 5.542969 0.0976562 C 8.195312 0.0976562 10.359375 -1.949219 10.359375 -4.460938 C 10.359375 -6.984375 8.195312 -9.03125 5.542969 -9.03125 Z M 5.542969 -1.113281 C 3.605469 -1.113281 2.050781 -2.621094 2.050781 -4.460938 C 2.050781 -6.3125 3.605469 -7.820312 5.542969 -7.820312 C 7.460938 -7.820312 9.015625 -6.3125 9.015625 -4.460938 C 9.015625 -2.621094 7.460938 -1.113281 5.542969 -1.113281 Z M 5.542969 -1.113281 "/></g></g></g><g fill="#006837" fill-opacity="1"><g transform="translate(105.869096, 256.138444)"><g><path d="M 9.738281 -12.359375 L 8.394531 -12.359375 L 8.394531 -8.097656 C 7.574219 -8.671875 6.507812 -9.03125 5.3125 -9.03125 C 2.804688 -9.03125 0.738281 -7.113281 0.738281 -4.460938 C 0.738281 -1.835938 2.804688 0.0976562 5.3125 0.0976562 C 6.476562 0.0976562 7.605469 -0.261719 8.394531 -0.851562 L 8.394531 0 L 9.738281 0 Z M 5.507812 -1.113281 C 3.605469 -1.113281 2.097656 -2.558594 2.097656 -4.460938 C 2.097656 -6.34375 3.605469 -7.820312 5.507812 -7.820312 C 6.6875 -7.820312 7.707031 -7.425781 8.394531 -6.785156 L 8.394531 -2.179688 C 7.6875 -1.507812 6.671875 -1.113281 5.507812 -1.113281 Z M 5.507812 -1.113281 "/></g></g></g><g fill="#006837" fill-opacity="1"><g transform="translate(117.306115, 256.138444)"><g><path d="M 0.703125 -0.722656 C 1.851562 -0.214844 2.984375 0.0976562 4.441406 0.0976562 C 6.867188 0.0976562 7.96875 -1.082031 7.96875 -2.542969 C 7.96875 -4.082031 6.640625 -4.722656 4.589844 -5.132812 C 2.933594 -5.460938 2.097656 -5.804688 2.097656 -6.589844 C 2.097656 -7.378906 2.933594 -7.917969 4.132812 -7.917969 C 5.132812 -7.917969 6.148438 -7.722656 7.050781 -7.328125 L 7.507812 -8.34375 C 6.492188 -8.753906 5.410156 -9.03125 4.164062 -9.03125 C 2.230469 -9.03125 0.867188 -7.984375 0.867188 -6.523438 C 0.867188 -5.03125 2.261719 -4.410156 4.195312 -4 C 5.785156 -3.671875 6.707031 -3.328125 6.707031 -2.476562 C 6.707031 -1.722656 6.113281 -1 4.476562 -1 C 3.261719 -1 2.246094 -1.328125 1.214844 -1.738281 Z M 0.703125 -0.722656 "/></g></g></g></svg>